<svg width="25" height="24" viewBox="0 0 25 24" fill="none" xmlns="http://www.w3.org/2000/svg">
<g clip-path="url(#clip0_1035_2006)">
<g clip-path="url(#clip1_1035_2006)">
<path d="M2.33325 3.993C2.33508 3.73038 2.44015 3.47902 2.62576 3.29322C2.81138 3.10742 3.06263 3.00209 3.32525 3H21.3413C21.8893 3 22.3333 3.445 22.3333 3.993V20.007C22.3314 20.2696 22.2264 20.521 22.0407 20.7068C21.8551 20.8926 21.6039 20.9979 21.3413 21H3.32525C3.06207 20.9997 2.80975 20.895 2.62374 20.7088C2.43773 20.5226 2.33325 20.2702 2.33325 20.007V3.993ZM4.33325 5V19H20.3333V5H4.33325ZM10.9553 8.415L15.8343 11.667C15.8891 11.7035 15.9341 11.753 15.9652 11.8111C15.9964 11.8692 16.0126 11.9341 16.0126 12C16.0126 12.0659 15.9964 12.1308 15.9652 12.1889C15.9341 12.247 15.8891 12.2965 15.8343 12.333L10.9543 15.585C10.8941 15.6249 10.8242 15.6477 10.7521 15.6512C10.68 15.6546 10.6083 15.6384 10.5447 15.6043C10.481 15.5703 10.4277 15.5197 10.3905 15.4578C10.3533 15.396 10.3335 15.3252 10.3333 15.253V8.747C10.3334 8.67465 10.3531 8.60369 10.3904 8.54168C10.4277 8.47967 10.4811 8.42893 10.5449 8.39486C10.6087 8.36079 10.6806 8.34467 10.7529 8.34822C10.8251 8.35177 10.8951 8.37485 10.9553 8.415Z" fill="#464C4F"/>
</g>
</g>
<defs>
<clipPath id="clip0_1035_2006">
<rect width="24" height="24" fill="white" transform="translate(0.333252)"/>
</clipPath>
<clipPath id="clip1_1035_2006">
<rect width="24" height="24" fill="white" transform="translate(0.333252)"/>
</clipPath>
</defs>
</svg>
