<svg width="25" height="24" viewBox="0 0 25 24" fill="none" xmlns="http://www.w3.org/2000/svg">
<g clip-path="url(#clip0_1035_2276)">
<g clip-path="url(#clip1_1035_2276)">
<path d="M18.6977 16.617L22.9807 20.899L21.5657 22.314L17.2837 18.031C15.6905 19.3082 13.7087 20.0029 11.6667 20C6.69875 20 2.66675 15.968 2.66675 11C2.66675 6.032 6.69875 2 11.6667 2C16.6347 2 20.6667 6.032 20.6667 11C20.6697 13.042 19.975 15.0237 18.6977 16.617ZM16.6917 15.875C17.9609 14.5699 18.6696 12.8204 18.6667 11C18.6667 7.132 15.5337 4 11.6667 4C7.79875 4 4.66675 7.132 4.66675 11C4.66675 14.867 7.79875 18 11.6667 18C13.4872 18.0029 15.2366 17.2941 16.5417 16.025L16.6917 15.875Z" fill="#EEEFF0"/>
</g>
</g>
<defs>
<clipPath id="clip0_1035_2276">
<rect width="24" height="24" fill="white" transform="translate(0.666748)"/>
</clipPath>
<clipPath id="clip1_1035_2276">
<rect width="24" height="24" fill="white" transform="translate(0.666748)"/>
</clipPath>
</defs>
</svg>
